<svg version="1.1" id="Layer_1" xmlns="http://www.w3.org/2000/svg" xmlns:xlink="http://www.w3.org/1999/xlink" x="0px" y="0px"
	 width="100%" viewBox="0 0 285 98" enable-background="new 0 0 285 98" xml:space="preserve">
<path fill="#FEFEFD" opacity="1.000000" stroke="none" 
	d="
M197.000000,99.000000 
	C131.333359,99.000000 66.166702,99.000000 1.000044,99.000000 
	C1.000029,66.333359 1.000029,33.666725 1.000015,1.000066 
	C95.999939,1.000044 190.999878,1.000044 285.999878,1.000022 
	C285.999908,33.666599 285.999908,66.333199 285.999939,98.999901 
	C256.500000,99.000000 227.000000,99.000000 197.000000,99.000000 
M69.456284,43.526882 
	C64.231133,38.426567 58.353870,33.827847 53.946808,28.098274 
	C48.505569,21.024193 41.848179,23.338938 36.090519,23.159533 
	C30.341780,37.086170 41.572247,42.752701 48.420570,50.954407 
	C41.006153,58.725079 30.550447,65.138054 35.917835,78.432465 
	C47.338776,79.780579 47.849968,79.701599 54.283554,72.917061 
	C56.860043,70.200027 59.120296,67.183121 61.559692,64.260529 
	C66.269661,68.961205 69.791626,72.486526 73.325676,75.999695 
	C75.699059,78.359062 85.389626,80.036377 88.271973,78.572037 
	C88.687836,78.360748 89.109840,78.024216 89.354332,77.635712 
	C90.725731,75.456490 89.374397,64.481155 87.412895,62.455173 
	C82.322182,57.197102 77.125229,52.041084 72.083839,46.736782 
	C71.119469,45.722126 70.672821,44.215412 70.910034,42.770935 
	C76.993126,42.770935 83.076225,42.770935 89.431259,42.770935 
	C89.431259,35.970604 89.431259,29.761948 89.431259,23.334927 
	C82.948853,23.334927 76.773117,23.334927 70.065147,23.334927 
	C70.065147,30.143236 70.065147,36.578243 69.456284,43.526882 
M231.676422,62.550278 
	C236.703796,70.428772 242.904007,71.512283 250.045074,66.916069 
	C253.122635,67.962120 255.198425,68.667671 257.647522,69.500114 
	C257.647522,55.753330 257.647522,43.059994 257.647522,30.405733 
	C255.699753,30.405733 254.093384,30.405733 252.075775,30.405733 
	C252.075775,34.827553 252.075775,39.047592 252.075775,43.512718 
	C240.998016,36.576237 230.807510,40.890858 230.070251,52.585087 
	C229.877457,55.643208 230.837769,58.774021 231.676422,62.550278 
M111.605133,42.959801 
	C112.081108,43.641884 112.462341,44.421741 113.048668,44.989952 
	C116.468040,48.303635 116.510628,51.310772 113.244537,55.051640 
	C109.700912,59.110397 106.869560,63.791023 103.603668,68.374405 
	C108.509155,69.893768 111.577827,68.617493 113.860069,64.520218 
	C115.708168,61.202347 118.162285,58.222042 120.582581,54.755440 
	C123.038330,58.222420 125.585884,61.306072 127.550079,64.724876 
	C129.883514,68.786346 132.853348,70.048843 137.570770,68.119614 
	C133.182190,61.964725 128.894928,55.951942 124.688324,50.052280 
	C128.802521,44.260242 132.605118,38.906891 136.524033,33.389786 
	C131.755249,32.077450 128.729416,33.155079 126.575432,37.182228 
	C125.007141,40.114368 122.748886,42.677479 120.955803,45.184761 
	C115.310867,41.087833 115.258339,30.768963 104.696091,33.292130 
	C106.980728,36.519817 109.062431,39.460804 111.605133,42.959801 
M224.822266,48.012794 
	C221.131622,41.361256 216.142746,38.808971 209.296738,40.070007 
	C203.231018,41.187313 199.080261,46.149498 198.298111,53.218700 
	C197.564407,59.849842 200.883759,65.873878 206.597076,68.279938 
	C212.809601,70.896217 220.075180,69.220612 224.729767,63.827030 
	C223.697769,62.825901 222.642197,61.801891 221.457092,60.652245 
	C217.315247,63.880543 212.933868,65.631630 208.413528,62.769989 
	C206.554962,61.593407 205.614746,58.966145 203.531113,55.947380 
	C212.078415,55.947380 218.852905,55.947380 226.197357,55.947380 
	C225.755798,53.259346 225.388016,51.020500 224.822266,48.012794 
M168.594635,62.590248 
	C174.734299,71.212021 185.350906,71.980141 193.101303,64.183105 
	C192.043564,62.953827 190.986206,61.724998 190.026657,60.609837 
	C181.043808,66.471657 174.408340,64.592789 173.322006,55.980568 
	C180.270294,55.980568 187.171249,55.980568 194.037598,55.980568 
	C194.231171,46.061024 189.724426,40.330318 181.775192,39.894367 
	C173.360596,39.432892 167.244019,44.707890 166.929413,53.139854 
	C166.820923,56.047359 167.733795,58.992970 168.594635,62.590248 
M149.279419,63.650162 
	C143.961411,59.810863 142.588654,52.764214 146.236160,48.028519 
	C149.374649,43.953709 153.223373,44.195351 159.612457,48.957493 
	C160.790527,47.951168 161.993774,46.923344 163.199005,45.893833 
	C156.973679,38.813728 148.070572,37.903461 142.378845,43.468964 
	C136.494873,49.222458 136.595322,60.461815 142.580170,65.999352 
	C148.440674,71.421806 157.511780,70.337265 163.301208,63.290470 
	C162.025879,62.301849 160.757202,61.318401 159.488541,60.334953 
	C159.523300,60.744350 159.558060,61.153751 159.592804,61.563148 
	C156.410706,62.343208 153.228607,63.123268 149.279419,63.650162 
z"/>
<path fill="#FA6C23" opacity="1.000000" stroke="none" 
	d="
M69.987328,42.935707 
	C70.672821,44.215412 71.119469,45.722126 72.083839,46.736782 
	C77.125229,52.041084 82.322182,57.197102 87.412895,62.455173 
	C89.374397,64.481155 90.725731,75.456490 89.354332,77.635712 
	C89.109840,78.024216 88.687836,78.360748 88.271973,78.572037 
	C85.389626,80.036377 75.699059,78.359062 73.325676,75.999695 
	C69.791626,72.486526 66.269661,68.961205 61.559692,64.260529 
	C59.120296,67.183121 56.860043,70.200027 54.283554,72.917061 
	C47.849968,79.701599 47.338776,79.780579 35.917835,78.432465 
	C30.550447,65.138054 41.006153,58.725079 48.420570,50.954407 
	C41.572247,42.752701 30.341780,37.086170 36.090519,23.159533 
	C41.848179,23.338938 48.505569,21.024193 53.946808,28.098274 
	C58.353870,33.827847 64.231133,38.426567 69.749123,43.242790 
	C70.041962,42.958702 69.987328,42.935707 69.987328,42.935707 
z"/>
<path fill="#0B0B0B" opacity="1.000000" stroke="none" 
	d="
M231.472473,62.210865 
	C230.837769,58.774021 229.877457,55.643208 230.070251,52.585087 
	C230.807510,40.890858 240.998016,36.576237 252.075775,43.512718 
	C252.075775,39.047592 252.075775,34.827553 252.075775,30.405733 
	C254.093384,30.405733 255.699753,30.405733 257.647522,30.405733 
	C257.647522,43.059994 257.647522,55.753330 257.647522,69.500114 
	C255.198425,68.667671 253.122635,67.962120 250.045074,66.916069 
	C242.904007,71.512283 236.703796,70.428772 231.472473,62.210865 
M237.745300,48.436802 
	C237.342590,51.637894 236.162109,54.978340 236.705276,58.009964 
	C237.717422,63.659302 243.722885,65.853027 248.297516,62.814220 
	C252.355881,60.118347 253.330414,52.817425 250.220932,48.404346 
	C247.322891,44.291370 242.944855,44.060726 237.745300,48.436802 
z"/>
<path fill="#0D0D0D" opacity="1.000000" stroke="none" 
	d="
M111.374634,42.680794 
	C109.062431,39.460804 106.980728,36.519817 104.696091,33.292130 
	C115.258339,30.768963 115.310867,41.087833 120.955803,45.184761 
	C122.748886,42.677479 125.007141,40.114368 126.575432,37.182228 
	C128.729416,33.155079 131.755249,32.077450 136.524033,33.389786 
	C132.605118,38.906891 128.802521,44.260242 124.688324,50.052280 
	C128.894928,55.951942 133.182190,61.964725 137.570770,68.119614 
	C132.853348,70.048843 129.883514,68.786346 127.550079,64.724876 
	C125.585884,61.306072 123.038330,58.222420 120.582581,54.755440 
	C118.162285,58.222042 115.708168,61.202347 113.860069,64.520218 
	C111.577827,68.617493 108.509155,69.893768 103.603668,68.374405 
	C106.869560,63.791023 109.700912,59.110397 113.244537,55.051640 
	C116.510628,51.310772 116.468040,48.303635 113.048668,44.989952 
	C112.462341,44.421741 112.081108,43.641884 111.374634,42.680794 
z"/>
<path fill="#0D0D0D" opacity="1.000000" stroke="none" 
	d="
M224.921249,48.397224 
	C225.388016,51.020500 225.755798,53.259346 226.197357,55.947380 
	C218.852905,55.947380 212.078415,55.947380 203.531113,55.947380 
	C205.614746,58.966145 206.554962,61.593407 208.413528,62.769989 
	C212.933868,65.631630 217.315247,63.880543 221.457092,60.652245 
	C222.642197,61.801891 223.697769,62.825901 224.729767,63.827030 
	C220.075180,69.220612 212.809601,70.896217 206.597076,68.279938 
	C200.883759,65.873878 197.564407,59.849842 198.298111,53.218700 
	C199.080261,46.149498 203.231018,41.187313 209.296738,40.070007 
	C216.142746,38.808971 221.131622,41.361256 224.921249,48.397224 
M208.797089,51.890575 
	C212.395386,51.890575 215.993698,51.890575 219.898926,51.890575 
	C219.314285,47.706787 217.406036,45.353813 213.635574,44.848396 
	C210.262817,44.396282 207.404404,45.291348 205.633728,48.525215 
	C204.177200,51.185356 205.066757,52.162376 208.797089,51.890575 
z"/>
<path fill="#0A0A0A" opacity="1.000000" stroke="none" 
	d="
M168.387375,62.255711 
	C167.733795,58.992970 166.820923,56.047359 166.929413,53.139854 
	C167.244019,44.707890 173.360596,39.432892 181.775192,39.894367 
	C189.724426,40.330318 194.231171,46.061024 194.037598,55.980568 
	C187.171249,55.980568 180.270294,55.980568 173.322006,55.980568 
	C174.408340,64.592789 181.043808,66.471657 190.026657,60.609837 
	C190.986206,61.724998 192.043564,62.953827 193.101303,64.183105 
	C185.350906,71.980141 174.734299,71.212021 168.387375,62.255711 
M184.549423,45.560097 
	C177.446289,43.724957 174.425903,45.402462 173.497925,51.691620 
	C178.271149,51.691620 183.044357,51.691620 189.088882,51.691620 
	C187.482346,49.313961 186.363876,47.658634 184.549423,45.560097 
z"/>
<path fill="#F8722C" opacity="1.000000" stroke="none" 
	d="
M70.053558,42.985977 
	C70.065147,36.578243 70.065147,30.143236 70.065147,23.334927 
	C76.773117,23.334927 82.948853,23.334927 89.431259,23.334927 
	C89.431259,29.761948 89.431259,35.970604 89.431259,42.770935 
	C83.076225,42.770935 76.993126,42.770935 70.448685,42.853321 
	C69.987328,42.935707 70.041962,42.958702 70.053558,42.985977 
z"/>
<path fill="#0E0E0E" opacity="1.000000" stroke="none" 
	d="
M149.662964,63.776745 
	C153.228607,63.123268 156.410706,62.343208 159.592804,61.563148 
	C159.558060,61.153751 159.523300,60.744350 159.488541,60.334953 
	C160.757202,61.318401 162.025879,62.301849 163.301208,63.290470 
	C157.511780,70.337265 148.440674,71.421806 142.580170,65.999352 
	C136.595322,60.461815 136.494873,49.222458 142.378845,43.468964 
	C148.070572,37.903461 156.973679,38.813728 163.199005,45.893833 
	C161.993774,46.923344 160.790527,47.951168 159.612457,48.957493 
	C153.223373,44.195351 149.374649,43.953709 146.236160,48.028519 
	C142.588654,52.764214 143.961411,59.810863 149.662964,63.776745 
z"/>
<path fill="#F4F4F4" opacity="1.000000" stroke="none" 
	d="
M237.948822,48.102669 
	C242.944855,44.060726 247.322891,44.291370 250.220932,48.404346 
	C253.330414,52.817425 252.355881,60.118347 248.297516,62.814220 
	C243.722885,65.853027 237.717422,63.659302 236.705276,58.009964 
	C236.162109,54.978340 237.342590,51.637894 237.948822,48.102669 
z"/>
<path fill="#EFEFEF" opacity="1.000000" stroke="none" 
	d="
M208.346054,51.889591 
	C205.066757,52.162376 204.177200,51.185356 205.633728,48.525215 
	C207.404404,45.291348 210.262817,44.396282 213.635574,44.848396 
	C217.406036,45.353813 219.314285,47.706787 219.898926,51.890575 
	C215.993698,51.890575 212.395386,51.890575 208.346054,51.889591 
z"/>
<path fill="#EFEFEF" opacity="1.000000" stroke="none" 
	d="
M184.897415,45.781704 
	C186.363876,47.658634 187.482346,49.313961 189.088882,51.691620 
	C183.044357,51.691620 178.271149,51.691620 173.497040,51.695324 
	C174.425903,45.402462 177.446289,43.724957 184.897415,45.781704 
z"/>
</svg>